<?xml version="1.0" encoding="UTF-8" standalone="no"?>
<svg
   xmlns:dc="http://purl.org/dc/elements/1.1/"
   xmlns:cc="http://creativecommons.org/ns#"
   xmlns:rdf="http://www.w3.org/1999/02/22-rdf-syntax-ns#"
   xmlns:svg="http://www.w3.org/2000/svg"
   xmlns="http://www.w3.org/2000/svg"
   viewBox="0 0 2126.6667 765.33331"
   height="765.33331"
   width="2126.6667"
   xml:space="preserve"
   id="svg2"
   version="1.1"><metadata
     id="metadata8"><rdf:RDF><cc:Work
         rdf:about=""><dc:format>image/svg+xml</dc:format><dc:type
           rdf:resource="http://purl.org/dc/dcmitype/StillImage" /></cc:Work></rdf:RDF></metadata><defs
     id="defs6"><clipPath
       id="clipPath24"
       clipPathUnits="userSpaceOnUse"><path
         style="clip-rule:evenodd"
         id="path22"
         d="m 3927.3,1989.21 c 0.33,-92.69 71.44,-163.5 163.72,-163.5 53.51,0 94.41,22.19 122.69,51.4 7.61,7.87 19.92,8.7 28.1,1.42 l 33.81,-30.12 c 8.34,-7.44 9.13,-20.39 1.44,-28.5 -43.29,-45.66 -109.01,-76.27 -188.09,-76.27 -149.34,0 -254.15,108.75 -254.15,246.21 0,137.46 103.45,246.19 252.77,246.19 62.87,0 117.75,-20.76 159.43,-54.32 8.98,-7.23 9.61,-20.73 1.68,-29.09 l -31.75,-33.53 c -7.16,-7.57 -19.07,-8.71 -27.16,-2.16 -27.93,22.62 -64.11,37.65 -105.42,37.01 -88.26,-1.36 -157.38,-76.61 -157.07,-164.74 z m 1406.31,220 v -42.07 c 0,-11.05 -8.97,-20 -20.03,-20 h -106.69 v -376.66 c 0,-11.05 -8.97,-20 -20.03,-20 h -52.41 c -11.06,0 -20.04,8.95 -20.04,20 v 376.66 h -106.69 c -11.07,0 -20.03,8.95 -20.03,20 v 42.07 c 0,11.05 8.96,20 20.03,20 h 305.86 c 11.06,0 20.03,-8.95 20.03,-20 z m 187.18,20 h 52.42 c 11.07,0 20.03,-8.95 20.03,-20 v -438.73 c 0,-11.05 -8.96,-20 -20.03,-20 h -52.42 c -11.06,0 -20.03,8.95 -20.03,20 v 438.73 c 0,11.05 8.97,20 20.03,20 z m 933.66,0 h 35.81 c 5.86,0 11.42,-2.56 15.22,-7 l 261.17,-304.86 v 291.86 c 0,11.05 8.97,20 20.03,20 h 52.41 c 11.07,0 20.03,-8.95 20.03,-20 v -438.73 c 0,-11.05 -8.96,-20 -20.03,-20 h -35.83 c -5.85,0 -11.41,2.56 -15.21,7 l -261.16,304.86 v -291.86 c 0,-11.05 -8.97,-20 -20.03,-20 h -52.41 c -11.07,0 -20.03,8.95 -20.03,20 v 438.73 c 0,11.05 8.96,20 20.03,20 z m 909.69,0 h 52.41 c 11.07,0 20.04,-8.95 20.04,-20 v -438.73 c 0,-11.05 -8.97,-20 -20.04,-20 h -52.41 c -11.07,0 -20.03,8.95 -20.03,20 v 438.73 c 0,11.05 8.96,20 20.03,20 z m 2797.56,0 h 52.4 c 11.1,0 20,-8.95 20,-20 v -438.73 c 0,-11.05 -8.9,-20 -20,-20 h -52.4 c -11.1,0 -20,8.95 -20,20 v 438.73 c 0,11.05 8.9,20 20,20 z m 335.5,-240 c 0.3,-92.69 71.4,-163.5 163.7,-163.5 43.9,0 79.5,15.04 106.9,36.94 v 103.26 h -103.3 c -11.1,0 -20,8.95 -20,20 v 42.07 c 0,11.04 8.9,20 20,20 h 175.7 c 11.1,0 20,-8.96 20,-20 v -192.7 c -42.4,-54.02 -113.7,-91.64 -201.3,-91.64 -149.4,0 -254.2,108.75 -254.2,246.21 0,137.46 103.5,246.19 252.8,246.19 62.9,0 117.7,-20.76 159.4,-54.32 9,-7.23 9.6,-20.73 1.7,-29.1 l -31.8,-33.52 c -7.1,-7.57 -19,-8.71 -27.1,-2.15 -28,22.62 -64.1,37.64 -105.4,37 -88.3,-1.36 -157.4,-76.61 -157.1,-164.74 z m -1918.02,220 v -42.07 c 0,-11.05 -8.98,-20 -20.03,-20 h -106.69 v -376.66 c 0,-11.05 -8.98,-20 -20.03,-20 h -52.42 c -11.06,0 -20.03,8.95 -20.03,20 v 376.66 h -106.69 c -11.07,0 -20.04,8.95 -20.04,20 v 42.07 c 0,11.05 8.97,20 20.04,20 h 305.86 c 11.05,0 20.03,-8.95 20.03,-20 z m 659.17,20 h 52.35 c 11.08,0 20.06,-8.97 20.06,-20.03 v -376.63 h 175.03 c 12.94,0 22.5,-12.09 19.48,-24.67 l -10.11,-42.07 c -2.16,-8.99 -10.22,-15.33 -19.48,-15.33 h -237.36 c -11.07,0 -20.03,8.95 -20.03,20 v 438.7 c 0,11.06 8.98,20.03 20.06,20.03 z m 2304.95,0 h 35.9 c 5.8,0 11.4,-2.56 15.2,-7 l 261.1,-304.86 v 291.86 c 0,11.05 9,20 20.1,20 h 52.4 c 11,0 20,-8.95 20,-20 v -438.73 c 0,-11.05 -9,-20 -20,-20 h -35.8 c -5.9,0 -11.5,2.56 -15.3,7 l -261.1,304.86 v -291.86 c 0,-11.05 -9,-20 -20.1,-20 h -52.4 c -11,0 -20,8.95 -20,20 v 438.73 c 0,11.05 9,20 20,20 z m 671.8,-240 c 0.3,-92.69 71.4,-163.5 163.7,-163.5 53.5,0 94.4,22.19 122.6,51.4 7.7,7.87 20,8.7 28.2,1.42 l 33.8,-30.12 c 8.3,-7.44 9.1,-20.39 1.4,-28.5 -43.3,-45.66 -109,-76.27 -188.1,-76.27 -149.3,0 -254.1,108.75 -254.1,246.21 0,137.46 103.4,246.19 252.7,246.19 62.9,0 117.8,-20.76 159.5,-54.32 9,-7.23 9.6,-20.73 1.6,-29.09 l -31.7,-33.53 c -7.2,-7.57 -19.1,-8.71 -27.2,-2.16 -27.9,22.62 -64.1,37.65 -105.4,37.01 -88.2,-1.36 -157.4,-76.61 -157,-164.74 z m -9420.52,240 h 52.35 c 11.08,0 20.07,-8.97 20.07,-20.03 v -376.63 h 175.02 c 12.95,0 22.5,-12.09 19.48,-24.67 l -10.11,-42.07 c -2.16,-8.99 -10.21,-15.33 -19.48,-15.33 h -237.36 c -11.07,0 -20.03,8.95 -20.03,20 v 438.7 c 0,11.06 8.98,20.03 20.06,20.03 z m 10042.12,-82.99 v -98.58 h 122.7 c 12.9,0 22.5,-12.03 19.5,-24.58 l -9.8,-41.59 c -2.1,-9.04 -10.2,-15.43 -19.5,-15.43 h -112.9 v -132.58 h 175.6 c 13,0 22.5,-12.03 19.6,-24.58 l -9.8,-41.59 c -2.2,-9.04 -10.2,-15.43 -19.5,-15.43 h -237.8 c -11,0 -20,8.96 -20,20 v 435.96 c 0,11.05 9,20 20,20 h 237 c 12.9,0 22.5,-12.02 19.5,-24.57 l -9.8,-41.61 c -2.1,-9.03 -10.2,-15.42 -19.5,-15.42 z m -1691.7,0 v -98.58 h 122.6 c 13,0 22.5,-12.03 19.5,-24.58 l -9.8,-41.59 c -2.1,-9.04 -10.2,-15.43 -19.5,-15.43 H 11145 v -132.58 h 175.6 c 12.9,0 22.5,-12.03 19.5,-24.58 l -9.8,-41.59 c -2.1,-9.04 -10.2,-15.43 -19.5,-15.43 h -237.7 c -11.1,0 -20.1,8.96 -20.1,20 v 435.96 c 0,11.05 9,20 20.1,20 h 237 c 12.9,0 22.4,-12.02 19.5,-24.57 l -9.8,-41.61 c -2.2,-9.03 -10.2,-15.42 -19.5,-15.42 z m -2303.27,0 v -98.58 h 122.67 c 12.91,0 22.46,-12.03 19.5,-24.58 l -9.8,-41.59 c -2.12,-9.04 -10.19,-15.43 -19.5,-15.43 h -112.87 v -132.58 h 175.62 c 12.91,0 22.46,-12.03 19.51,-24.58 l -9.8,-41.59 c -2.13,-9.04 -10.2,-15.43 -19.5,-15.43 h -237.74 c -11.05,0 -20.03,8.96 -20.03,20 v 435.96 c 0,11.05 8.98,20 20.03,20 h 236.98 c 12.93,0 22.46,-12.02 19.51,-24.57 l -9.79,-41.61 c -2.13,-9.03 -10.2,-15.42 -19.5,-15.42 z m -1180.29,82.99 h 35.81 c 5.84,0 11.41,-2.56 15.22,-7 l 261.16,-304.86 v 291.86 c 0,11.05 8.96,20 20.03,20 h 52.4 c 11.07,0 20.04,-8.95 20.04,-20 v -438.73 c 0,-11.05 -8.97,-20 -20.04,-20 h -35.81 c -5.85,0 -11.41,2.56 -15.22,7 l -261.15,304.86 v -291.86 c 0,-11.05 -8.97,-20 -20.04,-20 h -52.4 c -11.07,0 -20.03,8.95 -20.03,20 v 438.73 c 0,11.05 8.96,20 20.03,20 z m 2038.6,0 h 52.36 c 11.08,0 20.05,-8.97 20.05,-20.03 v -376.63 h 175.02 c 12.96,0 22.51,-12.09 19.49,-24.67 l -10.1,-42.07 c -2.17,-8.99 -10.23,-15.33 -19.49,-15.33 h -237.35 c -11.07,0 -20.04,8.95 -20.04,20 v 438.7 c 0,11.06 8.98,20.03 20.06,20.03 z m -6251.57,6.83 c 147.96,0 250.03,-110.09 250.03,-246.18 0,-136.09 -102.07,-246.22 -250.03,-246.22 -147.95,0 -250.02,110.13 -250.02,246.22 0,136.09 102.07,246.18 250.02,246.18 z m 962.78,-457.68 188.33,438.73 c 3.14,7.36 10.39,12.12 18.4,12.12 h 38.66 c 8,0 15.25,-4.76 18.41,-12.12 l 188.34,-438.73 c 5.66,-13.19 -4.04,-27.88 -18.41,-27.88 H 4792 c -8.03,0 -15.28,4.79 -18.43,12.16 l -40.02,93.86 h -192.48 l -40.02,-93.86 c -3.15,-7.37 -10.4,-12.16 -18.43,-12.16 h -52.97 c -14.37,0 -24.08,14.69 -18.4,27.88 z m 1602.57,457.68 c 147.96,0 250.04,-110.09 250.04,-246.18 0,-136.09 -102.08,-246.22 -250.04,-246.22 -147.94,0 -250.02,110.13 -250.02,246.22 0,136.09 102.08,246.18 250.02,246.18 z M 3448.47,1825.71 c 90.42,0 157.55,73.88 157.55,164.15 0,90.27 -67.13,164.11 -157.55,164.11 -90.41,0 -157.54,-73.84 -157.54,-164.11 0,-90.27 67.13,-164.15 157.54,-164.15 z m 1127.54,112.86 h 121.94 l -60.97,141.56 z m 1437.81,-112.86 c 90.42,0 157.56,73.88 157.56,164.15 0,90.27 -67.14,164.11 -157.56,164.11 -90.41,0 -157.54,-73.84 -157.54,-164.11 0,-90.27 67.13,-164.15 157.54,-164.15 z" /></clipPath><clipPath
       id="clipPath30"
       clipPathUnits="userSpaceOnUse"><path
         id="path28"
         d="M 0,0 H 15950 V 5740 H 0 Z" /></clipPath><clipPath
       id="clipPath40"
       clipPathUnits="userSpaceOnUse"><path
         style="clip-rule:evenodd"
         id="path38"
         d="m 7491.46,3447.09 -216.02,75.05 c -63.71,22.52 -71.35,58.14 -71.35,78.8 0,33.68 31.93,67.36 95.78,67.36 69.41,0 169.26,-19.13 266.86,-94.32 13.73,-10.66 33.04,-9.07 43.72,4.65 l 167.71,211.38 c 10.7,13.65 9.29,34.22 -4.02,45.45 -142.59,120.88 -318.08,162.88 -479.95,162.93 -311.82,0 -497.59,-193.09 -497.59,-403.12 0,-164.97 95.66,-316.88 300.57,-386.17 l 191.45,-65.71 c 93.87,-31.84 109.01,-56.28 109.01,-95.64 0,-35.62 -37.65,-76.79 -112.75,-76.79 -106.06,0 -230.59,63.62 -314.46,132.98 -13.45,11.17 -32.21,9.5 -42.75,-4.23 L 6755.5,2873.98 c -10.56,-13.7 -8.86,-34.72 4.16,-46 124.39,-107.66 309.19,-187.21 542.15,-187.21 292.95,0 505.24,168.84 505.24,423.73 0,174.52 -108.98,311.46 -315.59,382.59 z m -4818.52,533.52 h -883.98 c -20.9,0 -42.07,-23.38 -42.07,-42.02 V 2691.75 c 0,-20.53 18.54,-38.41 37.49,-38.41 h 309.78 c 18.61,0 33.73,19.97 33.73,38.41 v 422.65 h 387.19 c 18.61,0 35.21,11.44 40.67,33.06 l 55.41,271.1 c 3.6,16.16 -6.18,33.98 -27.34,33.98 h -455.93 v 191.98 h 495.67 c 18.75,0 36.94,14.77 40.82,32.93 l 52.2,258.78 c 4.71,22.61 -16.7,44.38 -43.64,44.38 z M 14108.4,3642.73 c 18.6,0 36.8,14.69 40.7,32.83 l 54.9,258.76 c 4.7,22.45 -11,44.22 -32.4,44.22 0,0 -863.3,2.32 -888.7,2.32 -21.2,0 -42.3,-44.83 -42.3,-63.4 V 2691.74 c 0,-21.13 26,-42.26 43.6,-42.26 h 811.8 c 18.7,0 36.8,14.69 40.7,32.86 l 54.9,258.94 c 4.8,22.45 -9.8,44.27 -40.9,44.27 h -529.1 v 172.92 h 386.7 c 18.6,0 36.9,14.84 40.7,32.97 l 57.9,266.6 c 3.6,16.08 -4.9,33.89 -27.4,33.89 h -457.9 v 150.8 z m -3637.3,337.88 c 0,0 -281.2,0.25 -300.4,0.25 -20.8,0 -41.7,-21.75 -41.7,-42.27 V 3177.8 c 0,-123.66 -45.1,-184.48 -159.55,-184.48 -114.54,0 -158.59,60.82 -158.59,184.48 v 761.74 c 0,20.18 -25.09,41.07 -42.33,41.07 h -294.37 c -16.95,0 -43.66,-26.79 -43.66,-42.02 v -830.91 c 0,-258.72 187.84,-466.77 535.21,-466.77 351.09,0 542.69,208.05 542.69,466.77 v 830.91 c 0,19.48 -16.9,42.02 -37.3,42.02 z m -5142.96,0 c 0,0 -281.19,0.25 -300.37,0.25 -20.83,0 -42.32,-21.75 -42.32,-42.27 v -755.84 c 0,-123.66 -44.52,-189.43 -158.93,-189.43 -114.53,0 -158.58,60.82 -158.58,184.48 v 761.74 c 0,20.18 -24.48,41.07 -42.34,41.07 h -300.55 c -22.66,0 -37.47,-14.31 -37.47,-36.11 v -836.82 c 0,-258.72 187.83,-466.77 535.21,-466.77 351.11,0 542.71,208.05 542.71,466.77 v 836.82 c 0,19.47 -16.95,36.11 -37.36,36.11 z m 6116.16,-30.09 c -5,16.63 -27.6,30.09 -44.8,30.09 h -403.1 c -17.3,0 -38.6,-13.46 -43.5,-30.09 l -378,-1268.87 c -5.1,-16.51 4.7,-32.17 22.2,-32.17 h 337.2 c 17.4,0 35.3,15.66 40,32.3 l 53.4,200.16 h 338.6 l 58.1,-200.29 c 5,-16.51 23.2,-32.17 40.5,-32.17 h 335.3 c 17.2,0 27.4,15.66 22.3,32.17 z m 1381.5,-794.12 c 159.4,78.73 241.8,202.25 241.8,385.85 0,232.17 -187.3,438.36 -504.3,438.36 h -571.6 c -18.7,0 -42.3,-19.21 -42.3,-37.99 V 2691.74 c 0,-18.77 20.7,-42.26 39.4,-42.26 h 300.6 c 18.7,0 41,23.49 41,42.26 v 401.53 h 127 l 224.8,-413.91 c 8.9,-16.57 31.4,-29.88 50.1,-29.88 h 354 c 18.8,0 26.5,13.17 16.9,29.39 z M 9273.27,2828.73 c -41.91,-15.75 -119.64,-36.6 -212,-15.8 -0.12,0 -0.12,0.05 -0.41,0.05 13.35,11.73 26.25,23.79 38.61,36.54 177.28,187.88 227.55,469.07 140.77,708.59 -89.95,248.32 -327.51,416.94 -594.07,438.43 -267.24,21.48 -537.7,-109.24 -666.68,-342.09 -134.96,-243.4 -109.68,-564.59 73.99,-777.75 158.67,-184.09 407.88,-260.89 641.31,-228.38 3.17,-3.12 6.64,-6.44 10.36,-9.91 129.28,-121.84 339.47,-189.55 518.73,-189.55 l 73.99,359.48 c 1.65,13.04 -7.94,26.63 -24.6,20.39 z M 3504.41,3996.54 c -267.12,21.48 -537.72,-109.24 -666.7,-342.09 -134.95,-243.4 -109.66,-564.59 74.01,-777.75 261.43,-303.43 768.58,-315.77 1045.99,-27.18 177.28,187.82 227.54,469.07 140.76,708.59 -89.95,248.32 -327.5,416.94 -594.06,438.43 z M 6412.22,3156.4 c 159.38,78.73 241.85,202.25 241.85,385.85 0,232.17 -187.4,438.36 -504.37,438.36 h -571.58 c -18.73,0 -42.34,-23.24 -42.34,-42.02 V 2691.74 c 0,-18.77 20.73,-42.26 39.46,-42.26 h 300.53 c 18.77,0 41.02,23.49 41.02,42.26 v 401.53 h 126.99 l 224.86,-413.91 c 8.9,-16.57 31.38,-29.88 50.11,-29.88 h 353.93 c 18.85,0 26.5,13.17 16.91,29.39 z m 4662.78,84.8 121.7,395.71 122,-395.71 z m 1454.6,169.07 h -199.2 v 232.46 h 190.5 c 108.7,0 160.4,-52.67 160.4,-118.23 0,-65.51 -43.1,-114.23 -151.7,-114.23 z M 8587.99,2987.15 c -172.02,0 -288.48,149.03 -288.48,332.69 0,183.79 116.75,332.68 288.48,332.68 171.61,0 288.36,-148.89 288.36,-332.68 0,-183.66 -116.46,-332.69 -288.36,-332.69 z m -5141.76,0 c -171.87,0 -288.35,149.03 -288.35,332.69 0,183.79 116.76,332.68 288.35,332.68 171.61,0 288.35,-148.89 288.35,-332.68 0,-183.66 -116.47,-332.69 -288.35,-332.69 z m 2669.74,423.12 h -199.18 v 232.46 h 190.5 c 108.69,0 160.41,-52.67 160.41,-118.23 0,-65.51 -43.05,-114.23 -151.73,-114.23 z" /></clipPath><clipPath
       id="clipPath46"
       clipPathUnits="userSpaceOnUse"><path
         id="path44"
         d="M 0,0 H 15950 V 5740 H 0 Z" /></clipPath></defs><g
     transform="matrix(1.3333333,0,0,-1.3333333,0,765.33333)"
     id="g10"><g
       transform="scale(0.1)"
       id="g12"><path
         id="path14"
         style="fill:#0430a3;fill-opacity:1;fill-rule:nonzero;stroke:none"
         d="M 0,0 H 15950 V 5740 H 0 Z" /><path
         id="path16"
         style="fill:#0430a3;fill-opacity:1;fill-rule:nonzero;stroke:none"
         d="M 0,0 H 15950 V 5740 H 0 Z" /><g
         id="g18"><g
           clip-path="url(#clipPath24)"
           id="g20"><g
             clip-path="url(#clipPath30)"
             id="g26"><path
               id="path32"
               style="fill:#8398d1;fill-opacity:1;fill-rule:nonzero;stroke:none"
               d="m 2724.52,1693.64 h 10357.9 v 592.402 H 2724.52 Z" /></g></g></g><g
         id="g34"><g
           clip-path="url(#clipPath40)"
           id="g36"><g
             clip-path="url(#clipPath46)"
             id="g42"><path
               id="path48"
               style="fill:#ffffff;fill-opacity:1;fill-rule:nonzero;stroke:none"
               d="m 1696.89,2398.86 h 12557.9 V 4048.83 H 1696.89 Z" /></g></g></g></g></g></svg>